<svg width="25" height="24" viewBox="0 0 25 24" fill="none" xmlns="http://www.w3.org/2000/svg">
<g clip-path="url(#clip0_551_238)">
<path d="M12.4048 24C19.0322 24 24.4048 18.6274 24.4048 12C24.4048 5.37258 19.0322 0 12.4048 0C5.77737 0 0.404785 5.37258 0.404785 12C0.404785 18.6274 5.77737 24 12.4048 24Z" fill="#F0F0F0"/>
<path d="M24.4048 11.9999C24.4048 6.84037 21.1483 2.44185 16.5787 0.746338V23.2536C21.1483 21.558 24.4048 17.1595 24.4048 11.9999Z" fill="#D80027"/>
<path d="M0.404785 11.9999C0.404785 17.1595 3.66133 21.558 8.23089 23.2536V0.746338C3.66133 2.44185 0.404785 6.84037 0.404785 11.9999Z" fill="#0052B4"/>
</g>
<defs>
<clipPath id="clip0_551_238">
<rect width="24" height="24" fill="white" transform="translate(0.404785)"/>
</clipPath>
</defs>
</svg>
