<svg width="25" height="24" viewBox="0 0 25 24" fill="none" xmlns="http://www.w3.org/2000/svg">
<g clip-path="url(#clip0_551_234)">
<path d="M1.15118 16.1738C2.8467 20.7434 7.24521 23.9999 12.4048 23.9999C17.5644 23.9999 21.9629 20.7434 23.6584 16.1738L12.4048 15.1304L1.15118 16.1738Z" fill="#FFDA44"/>
<path d="M12.4048 0C7.24521 0 2.8467 3.2565 1.15118 7.82611L12.4048 8.86955L23.6584 7.82606C21.9629 3.2565 17.5644 0 12.4048 0Z" fill="black"/>
<path d="M1.15118 7.82617C0.668832 9.12616 0.404785 10.5322 0.404785 12.0001C0.404785 13.4679 0.668832 14.874 1.15118 16.174H23.6584C24.1408 14.874 24.4048 13.4679 24.4048 12.0001C24.4048 10.5322 24.1408 9.12616 23.6584 7.82617H1.15118Z" fill="#D80027"/>
</g>
<defs>
<clipPath id="clip0_551_234">
<rect width="24" height="24" fill="white" transform="translate(0.404785)"/>
</clipPath>
</defs>
</svg>
