<svg width="64" height="55" viewBox="0 0 64 55" fill="none" xmlns="http://www.w3.org/2000/svg">
<path d="M13.5231 5.59413C15.8795 2.84182 17.0578 1.46566 18.6499 0.732831C20.2421 4.9069e-07 22.0537 9.51415e-07 25.677 1.87286e-06L47.3125 7.37507e-06C54.855 9.29323e-06 58.6262 1.02523e-05 60.9694 2.34316C63.3125 4.6863 63.3125 8.45754 63.3125 16V39C63.3125 46.5425 63.3125 50.3137 60.9694 52.6569C58.6262 55 54.855 55 47.3125 55L16 55C8.45753 55 4.6863 55 2.34315 52.6569C5.72205e-06 50.3137 5.72205e-06 46.5425 5.72205e-06 39V27.3026C5.72205e-06 24.3773 5.72205e-06 22.9146 0.496151 21.5723C0.992296 20.2299 1.94356 19.1188 3.84608 16.8967L13.5231 5.59413Z" fill="#682383"/>
<path d="M35.8126 11C31.3349 11 30.7719 11.0206 29.0126 11.099C27.2532 11.1815 26.0549 11.4579 25.0051 11.8662C23.9039 12.2804 22.9065 12.9301 22.0826 13.7699C21.2433 14.5943 20.5937 15.5916 20.1789 16.6925C19.7705 17.7403 19.4921 18.9406 19.4116 20.6937C19.3332 22.4572 19.3126 23.0182 19.3126 27.5021C19.3126 31.9818 19.3332 32.5428 19.4116 34.3021C19.4941 36.0594 19.7705 37.2577 20.1789 38.3075C20.6017 39.3924 21.1647 40.3122 22.0826 41.2301C22.9983 42.1479 23.9182 42.713 25.0031 43.1338C26.0549 43.5421 27.2512 43.8206 29.0084 43.901C30.7698 43.9794 31.3308 44 35.8126 44C40.2944 44 40.8534 43.9794 42.6147 43.901C44.3699 43.8185 45.5724 43.5421 46.6222 43.1338C47.7227 42.7194 48.7194 42.0697 49.5427 41.2301C50.4605 40.3122 51.0236 39.3924 51.4464 38.3075C51.8527 37.2577 52.1311 36.0594 52.2136 34.3021C52.292 32.5428 52.3126 31.9818 52.3126 27.5C52.3126 23.0182 52.292 22.4572 52.2136 20.6958C52.1311 18.9406 51.8527 17.7403 51.4464 16.6925C51.0316 15.5916 50.382 14.5943 49.5427 13.7699C48.719 12.9298 47.7215 12.2801 46.6201 11.8662C45.5682 11.4579 44.3679 11.1794 42.6127 11.099C40.8513 11.0206 40.2924 11 35.8085 11H35.8147H35.8126ZM34.3338 13.9741H35.8147C40.2202 13.9741 40.742 13.9886 42.4807 14.069C44.0894 14.1412 44.9639 14.4114 45.5456 14.6362C46.3149 14.9353 46.8656 15.2941 47.4431 15.8716C48.0206 16.4491 48.3774 16.9978 48.6764 17.7691C48.9033 18.3487 49.1714 19.2232 49.2436 20.8319C49.3241 22.5706 49.3406 23.0924 49.3406 27.4959C49.3406 31.8993 49.3241 32.4232 49.2436 34.1619C49.1714 35.7706 48.9012 36.6431 48.6764 37.2247C48.4119 37.9411 47.9897 38.5889 47.441 39.1201C46.8635 39.6976 46.3149 40.0544 45.5435 40.3535C44.966 40.5804 44.0915 40.8485 42.4807 40.9228C40.742 41.0011 40.2202 41.0197 35.8147 41.0197C31.4092 41.0197 30.8853 41.0011 29.1466 40.9228C27.5379 40.8485 26.6654 40.5804 26.0838 40.3535C25.3671 40.0893 24.7187 39.6679 24.1863 39.1201C23.6372 38.5881 23.2143 37.9397 22.9488 37.2226C22.724 36.6431 22.4538 35.7686 22.3816 34.1598C22.3032 32.4211 22.2867 31.8993 22.2867 27.4917C22.2867 23.0862 22.3032 22.5665 22.3816 20.8278C22.4559 19.2191 22.724 18.3446 22.9509 17.7629C23.2499 16.9936 23.6088 16.4429 24.1863 15.8654C24.7638 15.2879 25.3124 14.9311 26.0838 14.6321C26.6654 14.4052 27.5379 14.1371 29.1466 14.0628C30.6687 13.9927 31.2586 13.9721 34.3338 13.97V13.9741ZM44.6216 16.7131C44.3615 16.7131 44.1041 16.7643 43.8638 16.8638C43.6236 16.9633 43.4053 17.1092 43.2215 17.2931C43.0376 17.4769 42.8918 17.6952 42.7923 17.9354C42.6928 18.1756 42.6416 18.4331 42.6416 18.6931C42.6416 18.9531 42.6928 19.2106 42.7923 19.4508C42.8918 19.6911 43.0376 19.9093 43.2215 20.0932C43.4053 20.2771 43.6236 20.4229 43.8638 20.5224C44.1041 20.6219 44.3615 20.6731 44.6216 20.6731C45.1467 20.6731 45.6503 20.4645 46.0216 20.0932C46.393 19.7219 46.6016 19.2183 46.6016 18.6931C46.6016 18.168 46.393 17.6644 46.0216 17.2931C45.6503 16.9217 45.1467 16.7131 44.6216 16.7131ZM35.8147 19.0273C34.6908 19.0097 33.5746 19.2159 32.5311 19.6339C31.4877 20.0519 30.5378 20.6733 29.7368 21.4619C28.9358 22.2505 28.2997 23.1905 27.8655 24.2273C27.4313 25.2642 27.2077 26.377 27.2077 27.501C27.2077 28.6251 27.4313 29.7379 27.8655 30.7747C28.2997 31.8115 28.9358 32.7516 29.7368 33.5402C30.5378 34.3288 31.4877 34.9502 32.5311 35.3681C33.5746 35.7861 34.6908 35.9923 35.8147 35.9748C38.0392 35.9401 40.1608 35.0321 41.7216 33.4467C43.2825 31.8613 44.1573 29.7258 44.1573 27.501C44.1573 25.2763 43.2825 23.1407 41.7216 21.5554C40.1608 19.97 38.0392 19.062 35.8147 19.0273ZM35.8147 21.9993C37.2736 21.9993 38.6727 22.5788 39.7043 23.6104C40.7358 24.642 41.3154 26.0411 41.3154 27.5C41.3154 28.9589 40.7358 30.358 39.7043 31.3896C38.6727 32.4212 37.2736 33.0007 35.8147 33.0007C34.3558 33.0007 32.9567 32.4212 31.9251 31.3896C30.8935 30.358 30.314 28.9589 30.314 27.5C30.314 26.0411 30.8935 24.642 31.9251 23.6104C32.9567 22.5788 34.3558 21.9993 35.8147 21.9993Z" fill="#9E89B2"/>
</svg>
