<svg width="64" height="55" viewBox="0 0 64 55" fill="none" xmlns="http://www.w3.org/2000/svg">
<path d="M13.5231 5.59413C15.8795 2.84182 17.0578 1.46566 18.6499 0.732831C20.2421 4.9069e-07 22.0537 9.51415e-07 25.677 1.87286e-06L47.3125 7.37507e-06C54.855 9.29323e-06 58.6262 1.02523e-05 60.9694 2.34316C63.3125 4.6863 63.3125 8.45754 63.3125 16V39C63.3125 46.5425 63.3125 50.3137 60.9694 52.6569C58.6262 55 54.855 55 47.3125 55L16 55C8.45753 55 4.6863 55 2.34315 52.6569C5.72205e-06 50.3137 5.72205e-06 46.5425 5.72205e-06 39V27.3026C5.72205e-06 24.3773 5.72205e-06 22.9146 0.496151 21.5723C0.992296 20.2299 1.94356 19.1188 3.84608 16.8967L13.5231 5.59413Z" fill="#682383"/>
<path d="M28.3611 40.6479V23.0369H22.5087V40.6479H28.3611ZM25.4361 20.6311C27.4763 20.6311 28.7463 19.2807 28.7463 17.5891C28.7097 15.8609 27.4788 14.5471 25.4751 14.5471C23.4715 14.5471 22.1626 15.8634 22.1626 17.5891C22.1626 19.2807 23.4325 20.6311 25.3971 20.6311H25.4361ZM37.3994 40.6479V30.8126C37.3994 30.2861 37.4384 29.7596 37.5944 29.3842C38.0161 28.3336 38.9789 27.2441 40.5974 27.2441C42.7156 27.2441 43.5614 28.8577 43.5614 31.2269V40.6479H49.4138V30.5469C49.4138 25.1356 46.5278 22.6201 42.6766 22.6201C39.5712 22.6201 38.1794 24.3264 37.3994 25.5281V25.589H37.3604C37.3733 25.5686 37.3863 25.5483 37.3994 25.5281V23.0369H31.5494C31.6225 24.6896 31.5494 40.6479 31.5494 40.6479H37.3994Z" fill="#9E89B2"/>
</svg>
