<svg width="25" height="24" viewBox="0 0 25 24" fill="none" xmlns="http://www.w3.org/2000/svg">
<g clip-path="url(#clip0_551_217)">
<path d="M12.4048 24C19.0322 24 24.4048 18.6274 24.4048 12C24.4048 5.37258 19.0322 0 12.4048 0C5.77737 0 0.404785 5.37258 0.404785 12C0.404785 18.6274 5.77737 24 12.4048 24Z" fill="#F0F0F0"/>
<path d="M2.88541 4.69409C1.9428 5.92048 1.23204 7.334 0.818176 8.86958H7.06089L2.88541 4.69409Z" fill="#0052B4"/>
<path d="M23.9914 8.86953C23.5775 7.334 22.8667 5.92048 21.9242 4.69409L17.7488 8.86953H23.9914Z" fill="#0052B4"/>
<path d="M0.818176 15.1304C1.23208 16.6659 1.94285 18.0794 2.88541 19.3058L7.06075 15.1304H0.818176Z" fill="#0052B4"/>
<path d="M19.7106 2.48061C18.4842 1.538 17.0708 0.827236 15.5352 0.41333V6.656L19.7106 2.48061Z" fill="#0052B4"/>
<path d="M5.09894 21.5193C6.32533 22.4619 7.73884 23.1727 9.27438 23.5866V17.344L5.09894 21.5193Z" fill="#0052B4"/>
<path d="M9.27433 0.41333C7.7388 0.827236 6.32528 1.538 5.09894 2.48056L9.27433 6.65595V0.41333Z" fill="#0052B4"/>
<path d="M15.5352 23.5866C17.0708 23.1727 18.4843 22.4619 19.7106 21.5194L15.5352 17.344V23.5866Z" fill="#0052B4"/>
<path d="M17.7488 15.1304L21.9242 19.3058C22.8667 18.0795 23.5775 16.6659 23.9914 15.1304H17.7488Z" fill="#0052B4"/>
<path d="M24.3032 10.4348H13.9701H13.97V0.101578C13.4576 0.034875 12.9353 0 12.4048 0C11.8742 0 11.3519 0.034875 10.8396 0.101578V10.4347V10.4347H0.506363C0.43966 10.9471 0.404785 11.4695 0.404785 12C0.404785 12.5306 0.43966 13.0529 0.506363 13.5652H10.8395H10.8395V23.8984C11.3519 23.9651 11.8742 24 12.4048 24C12.9353 24 13.4576 23.9652 13.97 23.8984V13.5653V13.5653H24.3032C24.3699 13.0529 24.4048 12.5306 24.4048 12C24.4048 11.4695 24.3699 10.9471 24.3032 10.4348Z" fill="#D80027"/>
<path d="M15.5352 15.1304L20.89 20.4852C21.1363 20.239 21.3713 19.9817 21.5954 19.7148L17.011 15.1304H15.5352V15.1304Z" fill="#D80027"/>
<path d="M9.27432 15.1306H9.27423L3.91946 20.4854C4.16565 20.7317 4.42304 20.9666 4.68985 21.1908L9.27432 16.6062V15.1306Z" fill="#D80027"/>
<path d="M9.27433 8.8696V8.86951L3.91952 3.51465C3.67324 3.76084 3.4383 4.01823 3.21414 4.28504L7.79866 8.86955H9.27433V8.8696Z" fill="#D80027"/>
<path d="M15.5352 8.86956L20.8901 3.51465C20.6439 3.26837 20.3865 3.03344 20.1197 2.80933L15.5352 7.39384V8.86956Z" fill="#D80027"/>
</g>
<defs>
<clipPath id="clip0_551_217">
<rect width="24" height="24" fill="white" transform="translate(0.404785)"/>
</clipPath>
</defs>
</svg>
